<svg width="36" height="36" viewBox="0 0 36 36" fill="none" xmlns="http://www.w3.org/2000/svg">
  <g transform="translate(18, 18)">
    <g transform="scale(0.65, 0.85)">
      <path fill="black" d="M8 32V14C8 8 10 6 16 6H26C29 6 30 9 29 11.5C28.2 13.5 26.5 14 25 14H18C16 14 15 15 15 17C15 19 16 20 18 20H24C26.5 20 28 22 27.5 24.5C27 27 25 28 23 28H18C17 28 16 29 16 32H8Z" transform="translate(-32, -19)"/>
      <path fill="black" d="M8 32V14C8 8 10 6 16 6H26C29 6 30 9 29 11.5C28.2 13.5 26.5 14 25 14H18C16 14 15 15 15 17C15 19 16 20 18 20H24C26.5 20 28 22 27.5 24.5C27 27 25 28 23 28H18C17 28 16 29 16 32H8Z" transform="scale(-1, 1) translate(-32, -19)"/>
    </g>
  </g>
</svg>